<mxfile host="app.diagrams.net" modified="2022-01-16T14:32:24.492Z" agent="5.0 (Windows NT 10.0; Win64; x64) AppleWebKit/537.36 (KHTML, like Gecko) Chrome/97.0.4692.71 Safari/537.36" etag="ahkc5ur6lruD-Cz0Q2vw" version="16.2.7" type="github">
  <diagram id="hL10O0xJR0iWhI1Juv-x" name="Page-1">
    <mxGraphModel dx="1038" dy="556" grid="1" gridSize="10" guides="1" tooltips="1" connect="1" arrows="1" fold="1" page="1" pageScale="1" pageWidth="827" pageHeight="1169" math="0" shadow="0">
      <root>
        <mxCell id="0" />
        <mxCell id="1" parent="0" />
        <object label="Vertical Container" UNIVERSITY="" id="eLtgMkb3qvr9YvJItOUu-1">
          <mxCell style="swimlane;" vertex="1" parent="1">
            <mxGeometry x="300" y="20" width="200" height="120" as="geometry" />
          </mxCell>
        </object>
        <mxCell id="eLtgMkb3qvr9YvJItOUu-2" value="Vertical Container" style="swimlane;" vertex="1" parent="1">
          <mxGeometry y="240" width="200" height="120" as="geometry" />
        </mxCell>
        <mxCell id="eLtgMkb3qvr9YvJItOUu-3" value="Vertical Container" style="swimlane;" vertex="1" parent="1">
          <mxGeometry x="580" y="240" width="200" height="120" as="geometry" />
        </mxCell>
        <mxCell id="eLtgMkb3qvr9YvJItOUu-4" value="Vertical Container" style="swimlane;" vertex="1" parent="1">
          <mxGeometry x="300" y="240" width="200" height="120" as="geometry" />
        </mxCell>
      </root>
    </mxGraphModel>
  </diagram>
</mxfile>
